<?xml version="1.0" encoding="UTF-8" standalone="no"?>
<svg width="200" height="200" viewBox="0 0 200 200" xmlns="http://www.w3.org/2000/svg">
  <defs>
    <linearGradient id="neuralGradient" x1="0%" y1="0%" x2="100%" y2="100%">
      <stop offset="0%" style="stop-color:#00f0ff;stop-opacity:1" />
      <stop offset="100%" style="stop-color:#7700ff;stop-opacity:1" />
    </linearGradient>
    <filter id="glow" x="-30%" y="-30%" width="160%" height="160%">
      <feGaussianBlur stdDeviation="6" result="blur" />
      <feComposite in="SourceGraphic" in2="blur" operator="over" />
    </filter>
  </defs>
  
  <!-- Quantum-Inspired Background -->
  <circle cx="100" cy="100" r="90" fill="#080820" />
  <circle cx="100" cy="100" r="70" fill="#10105a" opacity="0.6" />
  
  <!-- Neural Network Pattern -->
  <g stroke="url(#neuralGradient)" stroke-width="0.8" opacity="0.4">
    <!-- Neurons -->
    <circle cx="75" cy="60" r="3" fill="#00f0ff" />
    <circle cx="60" cy="90" r="3" fill="#00f0ff" />
    <circle cx="90" cy="90" r="3" fill="#00f0ff" />
    <circle cx="120" cy="60" r="3" fill="#7700ff" />
    <circle cx="135" cy="90" r="3" fill="#7700ff" />
    <circle cx="105" cy="90" r="3" fill="#7700ff" />
    <circle cx="75" cy="120" r="3" fill="#ff00aa" />
    <circle cx="110" cy="120" r="3" fill="#ff00aa" />
    <circle cx="140" cy="120" r="3" fill="#ff00aa" />
    
    <!-- Connections -->
    <line x1="75" y1="60" x2="60" y2="90" />
    <line x1="75" y1="60" x2="90" y2="90" />
    <line x1="75" y1="60" x2="105" y2="90" />
    <line x1="120" y1="60" x2="90" y2="90" />
    <line x1="120" y1="60" x2="105" y2="90" />
    <line x1="120" y1="60" x2="135" y2="90" />
    <line x1="60" y1="90" x2="75" y2="120" />
    <line x1="90" y1="90" x2="75" y2="120" />
    <line x1="90" y1="90" x2="110" y2="120" />
    <line x1="105" y1="90" x2="110" y2="120" />
    <line x1="135" y1="90" x2="110" y2="120" />
    <line x1="135" y1="90" x2="140" y2="120" />
  </g>
  
  <!-- Quantum Core -->
  <g filter="url(#glow)">
    <circle cx="100" cy="100" r="25" fill="none" stroke="url(#neuralGradient)" stroke-width="3" />
    <circle cx="100" cy="100" r="15" fill="none" stroke="#ff00aa" stroke-width="2" />
    <circle cx="100" cy="100" r="5" fill="#ffffff" />
    
    <!-- Quantum Orbitals -->
    <ellipse cx="100" cy="100" rx="35" ry="15" fill="none" stroke="#00f0ff" stroke-width="1.5" transform="rotate(30 100 100)" />
    <ellipse cx="100" cy="100" rx="35" ry="15" fill="none" stroke="#7700ff" stroke-width="1.5" transform="rotate(150 100 100)" />
    <ellipse cx="100" cy="100" rx="40" ry="10" fill="none" stroke="#ff00aa" stroke-width="1.5" transform="rotate(90 100 100)" />
  </g>
  
  <!-- Text -->
  <text x="100" y="170" fill="#ffffff" font-family="Arial, sans-serif" font-weight="bold" font-size="18" text-anchor="middle">NeuroFusionOS</text>
</svg>